<?xml version="1.0" standalone="no"?>
<!DOCTYPE svg PUBLIC "-//W3C//DTD SVG 20010904//EN"
 "http://www.w3.org/TR/2001/REC-SVG-20010904/DTD/svg10.dtd">
<svg version="1.0" xmlns="http://www.w3.org/2000/svg"
 width="2560.000000pt" height="2040.000000pt" viewBox="0 0 2560.000000 2040.000000"
 preserveAspectRatio="xMidYMid meet">
<metadata>
Created by potrace 1.16, written by Peter Selinger 2001-2019
</metadata>
<g transform="translate(0.000000,2040.000000) scale(0.100000,-0.100000)"
fill="#7718f6" stroke="none">
<path d="M4995 20384 c-771 -105 -1431 -560 -1838 -1270 -110 -191 -221 -478
-272 -700 -59 -265 -58 -240 -60 -1234 -1 -908 -3 -1004 -41 -1515 -93 -1286
-331 -2352 -704 -3155 -273 -590 -634 -1034 -1067 -1314 -250 -161 -576 -280
-889 -324 l-124 -17 0 -655 0 -656 98 -12 c387 -49 751 -197 1070 -436 127
-96 336 -301 449 -442 636 -797 1038 -2148 1167 -3919 38 -511 40 -606 41
-1515 1 -896 2 -918 23 -1045 99 -577 340 -1052 737 -1451 150 -150 250 -233
410 -337 317 -206 680 -337 1047 -376 67 -8 2462 -11 7767 -11 6853 0 7683 2
7788 15 266 35 522 112 758 229 675 335 1173 967 1356 1721 64 266 63 243 64
1220 1 881 5 1036 41 1530 86 1188 293 2190 614 2970 70 168 221 470 305 610
433 715 1021 1132 1741 1233 l124 17 0 656 0 655 -98 12 c-273 34 -571 132
-807 264 -654 367 -1129 1066 -1470 2163 -201 648 -344 1481 -410 2395 -35
489 -39 646 -40 1525 -1 977 0 954 -64 1220 -89 368 -254 709 -489 1015 -91
118 -347 370 -465 459 -350 261 -738 421 -1160 476 -105 13 -944 15 -7810 14
-6415 -1 -7709 -3 -7792 -15z m8716 -4744 c896 -70 1624 -359 2142 -850 425
-403 681 -926 752 -1535 20 -171 19 -469 -1 -627 -102 -797 -610 -1516 -1327
-1878 -184 -92 -391 -165 -569 -200 -32 -6 -58 -15 -58 -19 0 -4 62 -18 138
-30 816 -129 1481 -515 1904 -1106 242 -339 388 -711 455 -1160 25 -167 24
-633 0 -820 -76 -568 -266 -1031 -590 -1435 -111 -139 -335 -354 -479 -463
-431 -324 -972 -550 -1594 -666 -155 -29 -369 -58 -604 -83 -85 -8 -753 -12
-2562 -15 l-2448 -4 0 5451 0 5450 2353 0 c1535 0 2400 -4 2488 -10z"/>
<path d="M10650 12630 l0 -1591 1153 4 c1006 3 1168 6 1277 20 393 53 645 121
899 243 306 147 532 347 676 599 237 417 254 1053 40 1487 -64 129 -138 231
-245 338 -244 245 -581 392 -1069 467 -93 15 -266 17 -1418 20 l-1313 4 0
-1591z"/>
<path d="M10650 7940 l0 -1761 1368 4 c1203 3 1383 6 1497 21 571 73 937 200
1244 431 304 229 489 540 567 956 22 114 30 478 14 607 -99 805 -639 1280
-1642 1442 -326 53 -341 53 -1740 57 l-1308 4 0 -1761z"/>
</g>
</svg>
